<mxfile host="app.diagrams.net" modified="2023-04-03T06:25:53.178Z" agent="Mozilla/5.0 (Macintosh; Intel Mac OS X 10_15_7) AppleWebKit/537.36 (KHTML, like Gecko) Chrome/111.0.0.0 Safari/537.36" etag="k8H5UG2QXHfUHKOEB4_h" version="21.1.2" type="google">
  <diagram name="Page-1" id="NZUghAeygN4xOzFgyzNi">
    <mxGraphModel grid="1" page="1" gridSize="10" guides="1" tooltips="1" connect="1" arrows="1" fold="1" pageScale="1" pageWidth="850" pageHeight="1100" math="0" shadow="0">
      <root>
        <mxCell id="0" />
        <mxCell id="1" parent="0" />
        <mxCell id="MWtYMCLdKbaBGjOGP5J6-3" value="" style="edgeStyle=orthogonalEdgeStyle;rounded=0;orthogonalLoop=1;jettySize=auto;html=1;" edge="1" parent="1" source="MWtYMCLdKbaBGjOGP5J6-1" target="MWtYMCLdKbaBGjOGP5J6-2">
          <mxGeometry relative="1" as="geometry" />
        </mxCell>
        <mxCell id="MWtYMCLdKbaBGjOGP5J6-1" value="Initialization (NI)" style="ellipse;whiteSpace=wrap;html=1;aspect=fixed;" vertex="1" parent="1">
          <mxGeometry x="-130" y="280" width="100" height="100" as="geometry" />
        </mxCell>
        <mxCell id="MWtYMCLdKbaBGjOGP5J6-17" style="edgeStyle=orthogonalEdgeStyle;rounded=0;orthogonalLoop=1;jettySize=auto;html=1;entryX=0.5;entryY=0;entryDx=0;entryDy=0;" edge="1" parent="1" source="MWtYMCLdKbaBGjOGP5J6-2" target="MWtYMCLdKbaBGjOGP5J6-5">
          <mxGeometry relative="1" as="geometry" />
        </mxCell>
        <mxCell id="MWtYMCLdKbaBGjOGP5J6-2" value="blockExplosion()" style="ellipse;whiteSpace=wrap;html=1;aspect=fixed;" vertex="1" parent="1">
          <mxGeometry x="-130" y="420" width="100" height="100" as="geometry" />
        </mxCell>
        <mxCell id="MWtYMCLdKbaBGjOGP5J6-10" value="" style="edgeStyle=orthogonalEdgeStyle;rounded=0;orthogonalLoop=1;jettySize=auto;html=1;" edge="1" parent="1" source="MWtYMCLdKbaBGjOGP5J6-5" target="MWtYMCLdKbaBGjOGP5J6-9">
          <mxGeometry relative="1" as="geometry" />
        </mxCell>
        <mxCell id="MWtYMCLdKbaBGjOGP5J6-31" value="IF condition met" style="edgeLabel;html=1;align=center;verticalAlign=middle;resizable=0;points=[];" connectable="0" vertex="1" parent="MWtYMCLdKbaBGjOGP5J6-10">
          <mxGeometry x="0.1476" y="-1" relative="1" as="geometry">
            <mxPoint y="1" as="offset" />
          </mxGeometry>
        </mxCell>
        <mxCell id="MWtYMCLdKbaBGjOGP5J6-18" style="edgeStyle=orthogonalEdgeStyle;rounded=0;orthogonalLoop=1;jettySize=auto;html=1;entryX=0.5;entryY=0;entryDx=0;entryDy=0;" edge="1" parent="1" source="MWtYMCLdKbaBGjOGP5J6-5" target="MWtYMCLdKbaBGjOGP5J6-11">
          <mxGeometry relative="1" as="geometry" />
        </mxCell>
        <mxCell id="MWtYMCLdKbaBGjOGP5J6-32" value="IF condition not met" style="edgeLabel;html=1;align=center;verticalAlign=middle;resizable=0;points=[];" connectable="0" vertex="1" parent="MWtYMCLdKbaBGjOGP5J6-18">
          <mxGeometry x="0.3042" y="-1" relative="1" as="geometry">
            <mxPoint as="offset" />
          </mxGeometry>
        </mxCell>
        <mxCell id="MWtYMCLdKbaBGjOGP5J6-5" value="IF (floor has surface and not solid)" style="ellipse;whiteSpace=wrap;html=1;aspect=fixed;" vertex="1" parent="1">
          <mxGeometry x="-130" y="560" width="100" height="100" as="geometry" />
        </mxCell>
        <mxCell id="MWtYMCLdKbaBGjOGP5J6-15" style="edgeStyle=orthogonalEdgeStyle;rounded=0;orthogonalLoop=1;jettySize=auto;html=1;entryX=0;entryY=0.5;entryDx=0;entryDy=0;" edge="1" parent="1" source="MWtYMCLdKbaBGjOGP5J6-9" target="MWtYMCLdKbaBGjOGP5J6-11">
          <mxGeometry relative="1" as="geometry" />
        </mxCell>
        <mxCell id="MWtYMCLdKbaBGjOGP5J6-9" value="Effect.rubble()" style="ellipse;whiteSpace=wrap;html=1;aspect=fixed;" vertex="1" parent="1">
          <mxGeometry x="-250" y="750" width="100" height="100" as="geometry" />
        </mxCell>
        <mxCell id="MWtYMCLdKbaBGjOGP5J6-11" value="Exit (NF)" style="ellipse;whiteSpace=wrap;html=1;aspect=fixed;" vertex="1" parent="1">
          <mxGeometry x="20" y="750" width="100" height="100" as="geometry" />
        </mxCell>
        <mxCell id="MWtYMCLdKbaBGjOGP5J6-26" style="edgeStyle=orthogonalEdgeStyle;rounded=0;orthogonalLoop=1;jettySize=auto;html=1;entryX=0.5;entryY=0;entryDx=0;entryDy=0;" edge="1" parent="1" source="MWtYMCLdKbaBGjOGP5J6-20" target="MWtYMCLdKbaBGjOGP5J6-21">
          <mxGeometry relative="1" as="geometry" />
        </mxCell>
        <mxCell id="MWtYMCLdKbaBGjOGP5J6-20" value="Initialization (NI)" style="ellipse;whiteSpace=wrap;html=1;aspect=fixed;" vertex="1" parent="1">
          <mxGeometry x="410" y="280" width="105" height="105" as="geometry" />
        </mxCell>
        <mxCell id="MWtYMCLdKbaBGjOGP5J6-27" style="edgeStyle=orthogonalEdgeStyle;rounded=0;orthogonalLoop=1;jettySize=auto;html=1;entryX=1;entryY=0.5;entryDx=0;entryDy=0;" edge="1" parent="1" source="MWtYMCLdKbaBGjOGP5J6-21" target="MWtYMCLdKbaBGjOGP5J6-22">
          <mxGeometry relative="1" as="geometry" />
        </mxCell>
        <mxCell id="MWtYMCLdKbaBGjOGP5J6-33" value="IF condition met" style="edgeLabel;html=1;align=center;verticalAlign=middle;resizable=0;points=[];" connectable="0" vertex="1" parent="MWtYMCLdKbaBGjOGP5J6-27">
          <mxGeometry x="-0.0256" y="2" relative="1" as="geometry">
            <mxPoint as="offset" />
          </mxGeometry>
        </mxCell>
        <mxCell id="MWtYMCLdKbaBGjOGP5J6-43" style="edgeStyle=orthogonalEdgeStyle;rounded=0;orthogonalLoop=1;jettySize=auto;html=1;entryX=0;entryY=0.5;entryDx=0;entryDy=0;" edge="1" parent="1" source="MWtYMCLdKbaBGjOGP5J6-21" target="MWtYMCLdKbaBGjOGP5J6-28">
          <mxGeometry relative="1" as="geometry" />
        </mxCell>
        <mxCell id="MWtYMCLdKbaBGjOGP5J6-44" value="IF condition not met" style="edgeLabel;html=1;align=center;verticalAlign=middle;resizable=0;points=[];" connectable="0" vertex="1" parent="MWtYMCLdKbaBGjOGP5J6-43">
          <mxGeometry x="-0.1657" y="1" relative="1" as="geometry">
            <mxPoint y="1" as="offset" />
          </mxGeometry>
        </mxCell>
        <mxCell id="MWtYMCLdKbaBGjOGP5J6-21" value="IF (current == air)" style="ellipse;whiteSpace=wrap;html=1;aspect=fixed;" vertex="1" parent="1">
          <mxGeometry x="412.5" y="420" width="100" height="100" as="geometry" />
        </mxCell>
        <mxCell id="MWtYMCLdKbaBGjOGP5J6-48" style="edgeStyle=orthogonalEdgeStyle;rounded=0;orthogonalLoop=1;jettySize=auto;html=1;exitX=1;exitY=1;exitDx=0;exitDy=0;entryX=0.09;entryY=0.205;entryDx=0;entryDy=0;entryPerimeter=0;" edge="1" parent="1" source="MWtYMCLdKbaBGjOGP5J6-22" target="MWtYMCLdKbaBGjOGP5J6-35">
          <mxGeometry relative="1" as="geometry" />
        </mxCell>
        <mxCell id="MWtYMCLdKbaBGjOGP5J6-22" value="remove()" style="ellipse;whiteSpace=wrap;html=1;aspect=fixed;" vertex="1" parent="1">
          <mxGeometry x="325" y="560" width="100" height="100" as="geometry" />
        </mxCell>
        <mxCell id="MWtYMCLdKbaBGjOGP5J6-39" style="edgeStyle=orthogonalEdgeStyle;rounded=0;orthogonalLoop=1;jettySize=auto;html=1;entryX=0.5;entryY=0;entryDx=0;entryDy=0;" edge="1" parent="1" source="MWtYMCLdKbaBGjOGP5J6-28" target="MWtYMCLdKbaBGjOGP5J6-38">
          <mxGeometry relative="1" as="geometry" />
        </mxCell>
        <mxCell id="MWtYMCLdKbaBGjOGP5J6-28" value="constructColor" style="ellipse;whiteSpace=wrap;html=1;aspect=fixed;" vertex="1" parent="1">
          <mxGeometry x="660" y="460" width="100" height="100" as="geometry" />
        </mxCell>
        <mxCell id="MWtYMCLdKbaBGjOGP5J6-35" value="Exit (NF)" style="ellipse;whiteSpace=wrap;html=1;aspect=fixed;" vertex="1" parent="1">
          <mxGeometry x="470" y="650" width="100" height="100" as="geometry" />
        </mxCell>
        <mxCell id="MWtYMCLdKbaBGjOGP5J6-47" style="edgeStyle=orthogonalEdgeStyle;rounded=0;orthogonalLoop=1;jettySize=auto;html=1;exitX=0;exitY=0.5;exitDx=0;exitDy=0;entryX=1;entryY=0.5;entryDx=0;entryDy=0;" edge="1" parent="1" source="MWtYMCLdKbaBGjOGP5J6-38" target="MWtYMCLdKbaBGjOGP5J6-35">
          <mxGeometry relative="1" as="geometry" />
        </mxCell>
        <mxCell id="MWtYMCLdKbaBGjOGP5J6-38" value="activeDeconstruct" style="ellipse;whiteSpace=wrap;html=1;aspect=fixed;" vertex="1" parent="1">
          <mxGeometry x="650" y="580" width="100" height="100" as="geometry" />
        </mxCell>
      </root>
    </mxGraphModel>
  </diagram>
</mxfile>
